<svg width="24" height="24" viewBox="0 0 24 24" fill="none" xmlns="http://www.w3.org/2000/svg">
<path fill-rule="evenodd" clip-rule="evenodd" d="M19 15.5C20.4 15.5 21.5 16.6 21.5 18C21.5 19.4 20.4 20.5 19 20.5C17.6 20.5 16.5 19.4 16.5 18C16.5 16.6 17.6 15.5 19 15.5ZM6.5 15.5C7.9 15.5 9 16.6 9 18C9 19.4 7.9 20.5 6.5 20.5C5.1 20.5 4 19.4 4 18C4 16.6 5.1 15.5 6.5 15.5ZM19 17C18.45 17 18 17.45 18 18C18 18.55 18.45 19 19 19C19.55 19 20 18.55 20 18C20 17.45 19.55 17 19 17ZM6.5 17C5.95 17 5.5 17.45 5.5 18C5.5 18.55 5.95 19 6.5 19C7.05 19 7.5 18.55 7.5 18C7.5 17.45 7.05 17 6.5 17ZM15.85 16.5C15.6786 16.8857 15.5439 17.3082 15.5089 17.7673L15.5 18H10C10 17.5286 9.92653 17.0939 9.7481 16.6959L9.65 16.5H15.85ZM17 3.5V6.5H21.75C22.0167 6.5 22.2833 6.65802 22.4095 6.90384L22.45 7L23.7 10.75C23.8667 11.2083 23.9639 11.7014 23.9917 12.2002L24 12.5V18H22.5V12.5C22.5 12.18 22.468 11.828 22.3784 11.4952L22.3 11.25L21.2 8H17V14C17 14.4 16.65 14.75 16.25 14.75C15.8833 14.75 15.5587 14.4559 15.5071 14.0988L15.5 14V5H1.5V15C1.5 15.8 2.07578 16.4228 2.85217 16.4933L3 16.5H3.35C3.15 16.95 3 17.45 3 18C1.40893 18 0.0968112 16.7447 0.00511798 15.1756L0 15V3.5H17ZM20.5 9L21.35 11.55C21.425 11.775 21.4719 12.0281 21.4906 12.2672L21.5 12.5V13H18V9H20.5Z" fill="#E20074"/>
</svg>
