<svg width="21" height="24" viewBox="0 0 21 24" fill="none" xmlns="http://www.w3.org/2000/svg">
<path fill-rule="evenodd" clip-rule="evenodd" d="M18 4.05L20.8 4.3L19.25 21.25C19.1054 22.8411 17.7519 24.0137 16.176 23.9609L16 23.95L6 23C5.01562 22.9531 4.20703 22.4229 3.73901 21.6564L3.65 21.5H6C6.0375 21.5375 6.075 21.5469 6.1125 21.5492L6.15 21.55L16.1 22.45C16.9028 22.5444 17.6164 21.9699 17.7353 21.2318L17.75 21.1L19.15 5.65L18 5.55V4.05ZM16.5 0V17C16.5 18.5911 15.2447 19.9032 13.6756 19.9949L13.5 20H3.5C1.90893 20 0.596811 18.7447 0.505118 17.1756L0.5 17V5L5.5 0H16.5ZM15 1.5H6.5V4.5C6.5 5.3 5.92422 5.92284 5.14783 5.99334L5 6H2V17C2 17.8 2.57578 18.4228 3.35217 18.4933L3.5 18.5H13.5C14.3 18.5 14.9228 17.9242 14.9933 17.1478L15 17V1.5ZM7.6 7.9C8.54118 7.19412 10.0138 7.1526 11.1009 7.52532L11.3 7.6L10.9 8.7C10.3 8.45 9.15 8.35 8.45 8.85C8.1875 9.06875 7.96328 9.36406 7.81084 9.76943L7.75 9.95H10.6L10.3 10.95H7.55V11.6H10.05L9.75 12.6H7.7C7.85 13.1 8.1 13.45 8.4 13.7C8.9625 14.1219 10.0084 14.2361 10.9197 13.7956L11.1 13.7L11.4 14.8C10.55 15.4 8.6 15.45 7.45 14.6C6.95 14.1909 6.61529 13.6165 6.4083 12.8017L6.35 12.55H5.35L5.7 11.55H6.25V10.9H5.35L5.7 9.9H6.4C6.6 9.1 6.95 8.4 7.6 7.9Z" fill="#E20074"/>
</svg>
