<svg width="22" height="20" viewBox="0 0 22 20" fill="none" xmlns="http://www.w3.org/2000/svg">
<path fill-rule="evenodd" clip-rule="evenodd" d="M7.8998 14.5L10.9998 17.6L14.0998 14.5H16.3498C18.624 14.5 20.5236 16.0453 21.0063 18.2295L21.0498 18.45L21.2498 19.5H0.799805L0.949805 18.45C1.3369 16.2242 3.17561 14.6071 5.42367 14.5051L5.6498 14.5H7.8998ZM11 0C14.5 0 17 2.5 17 6C17 9.4 14.6 13 11 13C7.4 13 5 9.4 5 6C5 2.5 7.5 0 11 0ZM11 1.5C8.4 1.5 6.5 3.4 6.5 6C6.5 8.65 8.3 11.5 11 11.5C13.7 11.5 15.5 8.65 15.5 6C15.5 3.4 13.6 1.5 11 1.5Z" fill="#E20074"/>
</svg>
