<svg width="24" height="24" viewBox="0 0 24 24" fill="none" xmlns="http://www.w3.org/2000/svg">
<path fill-rule="evenodd" clip-rule="evenodd" d="M6.6 14.25C7.46364 13.8864 8.40992 13.7707 9.36371 13.8653L9.65 13.9L14.25 14.65C14.85 14.75 15.35 15.05 15.7 15.55C15.85 15.8 16 16.05 16.05 16.35L16.6942 16.2384L17.4438 16.0962L20.6225 15.4619L20.95 15.4C21.9 15.2 22.8 15.65 23.25 16.5C23.5 17 23.6 17.65 23.4 18.2C23.2222 18.6889 22.8864 19.0988 22.4277 19.3594L22.25 19.45L15.7 22.55C14.65 23.05 13.55 23.3 12.4 23.3C11.92 23.3 11.44 23.268 10.96 23.1784L10.6 23.1L7.55 22.35C6.8 22.1833 5.98056 22.0514 5.17847 21.9831L4.7 21.95L0.5 21.7V16.7L6.6 14.25ZM9.4 15.4C8.73333 15.3111 8.02716 15.3407 7.38683 15.5591L7.15 15.65L2 17.7V20.25L4.75 20.45C5.625 20.4917 6.5 20.6028 7.375 20.7833L7.9 20.9L10.95 21.65C12.2036 21.9286 13.5865 21.8191 14.7785 21.3217L15.05 21.2L21.6 18.1C21.95 17.95 22.1 17.5 21.9 17.15C21.8 16.95 21.5 16.8 21.25 16.85L20.794 16.95L20.0102 17.1132L18.2812 17.4563L16.4778 17.8095L15.9354 17.9206C15.8862 17.9311 15.8409 17.9409 15.8 17.95C15.4308 18.55 14.8059 18.937 14.0827 18.993L13.9 19H8.55V17.5H13.9C14.25 17.5 14.5 17.25 14.55 16.95C14.6417 16.6292 14.4392 16.2663 14.0968 16.1696L14 16.15L9.4 15.4ZM10.85 0H13.2L13.5 1.6C13.5464 2.01786 13.9809 2.22015 14.3229 2.04676L14.4 2L15.75 1.1L17.4 2.75L16.45 4.1C16.2654 4.42308 16.4216 4.83136 16.7613 4.97091L16.85 5L18.55 5.35V7.7L16.9 8C16.4821 8.04643 16.2798 8.48087 16.4532 8.82292L17.3 10.25L15.65 11.9L14.3 10.95C13.9769 10.7654 13.5686 10.9216 13.4291 11.2613L13.4 11.35L13.1 13H10.75L10.45 11.35C10.4036 10.9321 9.96913 10.7298 9.62708 10.9032L9.55 10.95L8.2 11.9L6.55 10.25L7.5 8.9C7.73077 8.57692 7.57811 8.12604 7.23864 7.97993L7.15 7.95L5.5 7.65V5.3L7.1 5C7.51786 4.95357 7.72015 4.51913 7.54676 4.17708L7.5 4.1L6.6 2.75L8.25 1.1L9.6 2.05C9.92308 2.23462 10.3314 2.0784 10.4709 1.73867L10.5 1.65L10.85 0ZM12 4.5C10.9 4.5 10 5.4 10 6.5C10 7.6 10.9 8.5 12 8.5C13.1 8.5 14 7.6 14 6.5C14 5.4 13.1 4.5 12 4.5Z" fill="#E20074"/>
</svg>
