<svg width="50" height="50" viewBox="0 0 50 50" fill="none" xmlns="http://www.w3.org/2000/svg">
<path fill-rule="evenodd" clip-rule="evenodd" d="M30.8747 32.5L35.1247 28.25L49.8747 36.625C49.6247 39.5 48.9997 45.375 44.2497 48.375C42.2497 49.625 39.9997 50 37.9997 50C35.7519 50 33.7062 49.3937 32.6804 49.0897C32.5652 49.0555 32.463 49.0252 32.3747 49C26.6247 47 19.9997 42.5 13.7497 36.25C7.62468 30 3.12468 23.375 0.999677 17.5C0.499677 15.875 -1.12532 10.25 1.74968 5.625C4.87468 0.875 10.7497 0.25 13.4997 0L21.8747 15L17.6247 19.25C16.9997 19.875 16.8747 21 17.4997 21.75C18.6247 23.125 20.3747 25.25 22.6247 27.5C24.8747 29.75 26.9997 31.5 28.3747 32.625C29.1247 33.25 30.2497 33.125 30.8747 32.5ZM33.7493 45.3752C34.8743 45.7502 39.2493 47.0002 42.3743 45.0002C44.2493 43.8752 45.3743 41.6252 45.9993 38.5002L35.8743 32.7502L33.6243 35.0002C31.6243 37.0002 28.3743 37.1252 26.1243 35.3752C24.6243 34.2502 22.3743 32.3752 19.9993 30.0002C17.7493 27.6252 15.8743 25.3752 14.6243 23.8752C12.7493 21.6252 12.9993 18.3752 14.9993 16.3752L17.3743 14.1252L11.6243 4.00024C8.49927 4.50024 6.24927 5.75024 5.12427 7.62524C3.12427 10.7502 4.37427 15.0002 4.74927 16.2502C6.49927 21.6252 10.7493 27.7502 16.4993 33.5002C22.3743 39.3752 28.4993 43.6252 33.7493 45.3752Z" fill="white"/>
</svg>
