<svg width="59" height="58" viewBox="0 0 59 58" fill="none" xmlns="http://www.w3.org/2000/svg">
<path fill-rule="evenodd" clip-rule="evenodd" d="M49.5 14.3613V7.75009H41.7612L35.81 2.66634C32.1525 -0.456162 26.8475 -0.456162 23.19 2.66634L17.2388 7.75009H9.5V14.3613L0.75 21.8351V50.2501C0.75 54.3863 4.11375 57.7501 8.25 57.7501H50.75C54.8862 57.7501 58.25 54.3863 58.25 50.2501V21.8351L49.5 14.3613ZM13.25 11.5001H45.75V28.4963L29.5 37.4826L13.25 28.4963V11.5001ZM54.5 50.2504C54.5 52.3179 52.8175 54.0004 50.75 54.0004H8.25C6.1825 54.0004 4.5 52.3179 4.5 50.2504V27.9429L29.5 41.7679L54.5 27.9429V50.2504ZM22 21.5001H37C38.035 21.5001 38.875 20.6613 38.875 19.6251C38.875 18.5888 38.035 17.7501 37 17.7501H22C20.965 17.7501 20.125 18.5888 20.125 19.6251C20.125 20.6613 20.965 21.5001 22 21.5001ZM38.875 27.1251C38.875 26.0888 38.035 25.2501 37 25.2501H22C20.965 25.2501 20.125 26.0888 20.125 27.1251C20.125 28.1613 20.965 29.0001 22 29.0001H37C38.035 29.0001 38.875 28.1613 38.875 27.1251Z" fill="white"/>
</svg>
