<svg width="24" height="19" viewBox="0 0 24 19" fill="none" xmlns="http://www.w3.org/2000/svg">
<path fill-rule="evenodd" clip-rule="evenodd" d="M11.7551 6.04085C12.8327 6.04085 13.7143 6.92248 13.7143 8.00003C13.7143 8.77717 13.2876 9.42632 12.6334 9.74835L12.4898 9.81228V17.7959C12.4898 18.1878 12.147 18.5306 11.7551 18.5306C11.3959 18.5306 11.0779 18.2425 11.0274 17.8927L11.0204 17.7959V9.81228C10.2857 9.5184 9.79594 8.83268 9.79594 8.00003C9.79594 6.92248 10.6776 6.04085 11.7551 6.04085ZM3.77145 0.0163574L4.84901 1.09391C1.09935 4.84357 1.02991 10.858 4.59438 14.6915L4.80003 14.9062L3.77145 15.9347C-0.560706 11.6507 -0.635398 4.67028 3.54738 0.246784L3.77145 0.0163574ZM19.739 0.0163574C24.023 4.34852 24.0969 11.3298 19.9606 15.7068L19.739 15.9347L18.7104 14.9062C22.4601 11.1565 22.5295 5.0949 18.9188 1.25961L18.7104 1.04493L19.739 0.0163574ZM6.56329 2.80819L7.59186 3.83677C6.46533 4.9633 5.87758 6.43268 5.87758 8.00003C5.87758 9.47518 6.44161 10.8636 7.40632 11.961L7.59186 12.1633L6.56329 13.1919C5.19186 11.8204 4.40819 9.95922 4.40819 8.00003C4.40819 6.14396 5.11154 4.37581 6.35166 3.02875L6.56329 2.80819ZM16.947 2.80819C18.3184 4.17962 19.1021 6.04085 19.1021 8.00003C19.1021 9.8561 18.3987 11.6242 17.1586 12.9713L16.947 13.1919L15.9184 12.1633C17.0449 11.0368 17.6327 9.56738 17.6327 8.00003C17.6327 6.52488 17.112 5.1365 16.1116 4.03907L15.9184 3.83677L16.947 2.80819Z" fill="#E20074"/>
</svg>
