<svg width="24" height="24" viewBox="0 0 24 24" fill="none" xmlns="http://www.w3.org/2000/svg">
<path fill-rule="evenodd" clip-rule="evenodd" d="M20.5 3V5H22V19C22 20.65 20.65 22 19 22H5C3.35 22 2 20.65 2 19V6C2 4.35 3.35 3 5 3H9.55L15.7 0.25L16.6 3H20.5ZM8.75 5H15.7L14.8 2.25L8.75 5ZM20.5 14.5H16C15.45 14.5 15 14.05 15 13.5C15 12.95 15.45 12.5 16 12.5H20.5V14.5ZM13.5 13.5C13.5 12.1 14.6 11 16 11H20.5V6.5H3.5V19C3.5 19.85 4.15 20.5 5 20.5H19C19.85 20.5 20.5 19.85 20.5 19V16H16C14.6 16 13.5 14.9 13.5 13.5Z" fill="#E20074"/>
</svg>
